<svg width="18" height="21" viewBox="0 0 18 21" fill="none" xmlns="http://www.w3.org/2000/svg">
<path d="M17.058 2.58026C16.7775 2.1709 16.3759 1.84604 15.8866 1.65492C15.7754 1.612 15.6587 1.56591 15.5384 1.51712C11.322 -0.188973 6.67796 -0.188973 2.4624 1.51712C2.34167 1.56636 2.22457 1.612 2.11428 1.65492C1.13618 2.03626 0.504395 2.95753 0.504395 4.00169V7.46267C0.504395 9.57269 0.994574 11.6913 1.92138 13.5903C2.84819 15.4884 4.21888 17.1814 5.8855 18.4854L7.43592 19.6972C7.8966 20.0577 8.44851 20.2375 8.99997 20.2375C9.55233 20.2375 10.1038 20.0573 10.564 19.6972L12.1144 18.4854C13.7815 17.1814 15.1527 15.488 16.0795 13.5903C17.0063 11.6918 17.4955 9.57314 17.4955 7.46267V4.00169C17.4955 3.48029 17.3376 2.9878 17.058 2.58026ZM4.47623 8.43907C4.64779 8.26828 4.87291 8.18379 5.09803 8.18379C5.32315 8.18379 5.54827 8.26828 5.71984 8.43907L7.87527 10.5848C8.05773 10.7669 8.35366 10.7669 8.53611 10.5848L12.6949 6.44561C12.8615 6.27979 13.0825 6.18852 13.3167 6.18852C13.5523 6.18852 13.7729 6.27979 13.9386 6.44561C14.1051 6.61053 14.1959 6.83056 14.1959 7.06461C14.1959 7.2982 14.1051 7.5178 13.9386 7.68362L8.8275 12.7716C8.66184 12.9365 8.4408 13.0278 8.20569 13.0278C7.97104 13.0278 7.75046 12.9365 7.58389 12.7716L4.47623 9.67706C4.30965 9.51215 4.21888 9.29211 4.21888 9.05807C4.21888 8.82447 4.31011 8.60444 4.47623 8.43907Z" fill="#414249"/>
</svg>
