<svg width="20" height="17" viewBox="0 0 20 17" fill="none" xmlns="http://www.w3.org/2000/svg">
<path d="M19.5509 2.20798C19.0076 3.00931 18.3556 3.68865 17.5949 4.24598C17.5949 4.30065 17.6016 4.38565 17.6149 4.50098C17.6283 4.61631 17.6349 4.70131 17.6349 4.75598C17.6349 5.81531 17.4786 6.87498 17.1659 7.93498C16.8533 8.99498 16.3779 10.007 15.7399 10.971C15.1019 11.935 14.3446 12.7906 13.4679 13.538C12.5913 14.2853 11.5386 14.883 10.3099 15.331C9.08125 15.779 7.76025 16.003 6.34692 16.003C4.14625 16.003 2.13592 15.412 0.315918 14.23C0.696585 14.2573 1.00892 14.271 1.25292 14.271C3.08692 14.271 4.72392 13.714 6.16392 12.6C5.30792 12.5866 4.54392 12.3253 3.87192 11.816C3.19992 11.3066 2.72792 10.6513 2.45592 9.84998C2.68658 9.90465 2.93792 9.93198 3.20992 9.93198C3.57658 9.93198 3.92292 9.87765 4.24892 9.76898C3.33892 9.57898 2.58492 9.12398 1.98692 8.40398C1.38892 7.68398 1.08992 6.85531 1.08992 5.91798V5.87698C1.60592 6.14898 2.19692 6.29831 2.86292 6.32498C2.33292 5.97165 1.91192 5.50631 1.59992 4.92898C1.28792 4.35165 1.13158 3.73031 1.13092 3.06498C1.13092 2.38565 1.30058 1.71998 1.63992 1.06798C2.63125 2.30398 3.82992 3.27865 5.23592 3.99198C6.64192 4.70531 8.16658 5.10265 9.80992 5.18398C9.71459 4.84465 9.66692 4.54565 9.66692 4.28698C9.66692 3.20031 10.0539 2.27331 10.8279 1.50598C11.6019 0.738647 12.5459 0.35498 13.6599 0.35498C14.2033 0.35498 14.7263 0.463647 15.2289 0.68098C15.7316 0.898314 16.1596 1.20398 16.5129 1.59798C17.4096 1.42131 18.2449 1.10198 19.0189 0.639981C18.7336 1.56398 18.1563 2.29065 17.2869 2.81998C18.1156 2.71131 18.8696 2.50765 19.5489 2.20898L19.5509 2.20798Z" fill="white"/>
</svg>
