<svg width="23" height="20" viewBox="0 0 23 20" fill="none" xmlns="http://www.w3.org/2000/svg">
<path d="M11.1265 3.46856C11.2661 3.76083 11.6825 3.75935 11.8196 3.46607C11.8642 3.37049 11.9082 3.27639 11.9523 3.1823C12.9237 1.10588 15.2368 -0.21684 17.4654 0.0293884C19.9296 0.301641 21.9045 1.98569 22.4139 4.29883C22.8363 6.21911 22.4125 7.99877 21.397 9.6518C20.6248 10.9085 19.5888 11.9389 18.5138 12.9313C16.9884 14.3396 15.3844 15.6624 13.9331 17.1512C13.0953 18.0105 12.3061 18.9114 11.5989 19.8823C11.5209 19.9899 11.4738 20.0709 11.3512 19.9063C9.81729 17.8484 7.93354 16.1323 6.01176 14.4532C4.78512 13.3812 3.54848 12.3188 2.50051 11.0616C1.44753 9.79792 0.741373 8.38362 0.497647 6.73659C0.139316 4.31134 1.0907 2.07829 3.05452 0.849148C5.85662 -0.904476 9.55455 0.169012 10.9729 3.14777C11.0239 3.25337 11.0749 3.36046 11.1265 3.46856Z" fill="#414249"/>
</svg>
