<svg width="20" height="20" viewBox="0 0 20 20" fill="none" xmlns="http://www.w3.org/2000/svg">
<path fill-rule="evenodd" clip-rule="evenodd" d="M0.299805 1.00005C0.299805 0.613449 0.613205 0.300049 0.999805 0.300049H2.9998C3.34199 0.300049 3.63403 0.547438 3.69028 0.88497L4.09279 3.30005H18.9998C19.2248 3.30005 19.4361 3.40821 19.5677 3.59075C19.6992 3.77329 19.735 4.00794 19.6639 4.22141L16.6639 13.2214C16.5686 13.5072 16.3011 13.7 15.9998 13.7H4.9998C4.65762 13.7 4.36558 13.4527 4.30933 13.1151L2.40682 1.70005H0.999805C0.613205 1.70005 0.299805 1.38665 0.299805 1.00005ZM4.32613 4.70005L5.59279 12.3H15.4953L18.0286 4.70005H4.32613Z" fill="#414249"/>
<path fill-rule="evenodd" clip-rule="evenodd" d="M9.4001 17.0001C9.4001 18.3256 8.32558 19.4001 7.0001 19.4001C5.67461 19.4001 4.6001 18.3256 4.6001 17.0001C4.6001 15.6746 5.67461 14.6001 7.0001 14.6001C8.32558 14.6001 9.4001 15.6746 9.4001 17.0001ZM8.0001 17.0001C8.0001 17.5524 7.55238 18.0001 7.0001 18.0001C6.44781 18.0001 6.0001 17.5524 6.0001 17.0001C6.0001 16.4478 6.44781 16.0001 7.0001 16.0001C7.55238 16.0001 8.0001 16.4478 8.0001 17.0001Z" fill="#414249"/>
<path fill-rule="evenodd" clip-rule="evenodd" d="M16.4001 17.0001C16.4001 18.3256 15.3256 19.4001 14.0001 19.4001C12.6746 19.4001 11.6001 18.3256 11.6001 17.0001C11.6001 15.6746 12.6746 14.6001 14.0001 14.6001C15.3256 14.6001 16.4001 15.6746 16.4001 17.0001ZM15.0001 17.0001C15.0001 17.5524 14.5524 18.0001 14.0001 18.0001C13.4478 18.0001 13.0001 17.5524 13.0001 17.0001C13.0001 16.4478 13.4478 16.0001 14.0001 16.0001C14.5524 16.0001 15.0001 16.4478 15.0001 17.0001Z" fill="#414249"/>
</svg>
