<svg width="18" height="20" viewBox="0 0 18 20" fill="none" xmlns="http://www.w3.org/2000/svg">
<path fill-rule="evenodd" clip-rule="evenodd" d="M8.9998 1.70005C6.62498 1.70005 4.6998 3.62522 4.6998 6.00005C4.6998 8.37487 6.62498 10.3 8.9998 10.3C11.3746 10.3 13.2998 8.37487 13.2998 6.00005C13.2998 3.62522 11.3746 1.70005 8.9998 1.70005ZM3.2998 6.00005C3.2998 2.85203 5.85178 0.300049 8.9998 0.300049C12.1478 0.300049 14.6998 2.85203 14.6998 6.00005C14.6998 9.14807 12.1478 11.7 8.9998 11.7C5.85178 11.7 3.2998 9.14807 3.2998 6.00005Z" fill="#414249"/>
<path fill-rule="evenodd" clip-rule="evenodd" d="M2.84798 12.8482C4.47954 11.2167 6.69242 10.3 8.9998 10.3C11.3072 10.3 13.5201 11.2167 15.1516 12.8482C16.7832 14.4798 17.6998 16.6927 17.6998 19C17.6998 19.3866 17.3864 19.7 16.9998 19.7C16.6132 19.7 16.2998 19.3866 16.2998 19C16.2998 17.064 15.5307 15.2072 14.1617 13.8382C12.7927 12.4692 10.9359 11.7 8.9998 11.7C7.06372 11.7 5.20694 12.4692 3.83793 13.8382C2.46891 15.2072 1.6998 17.064 1.6998 19C1.6998 19.3866 1.3864 19.7 0.999805 19.7C0.613205 19.7 0.299805 19.3866 0.299805 19C0.299805 16.6927 1.21641 14.4798 2.84798 12.8482Z" fill="#414249"/>
</svg>
