<svg width="18" height="18" viewBox="0 0 18 18" fill="none" xmlns="http://www.w3.org/2000/svg">
<path fill-rule="evenodd" clip-rule="evenodd" d="M9.3001 1.70005C5.26842 1.70005 2.0001 4.96837 2.0001 9.00005C2.0001 13.0317 5.26842 16.3 9.3001 16.3C13.3318 16.3 16.6001 13.0317 16.6001 9.00005C16.6001 4.96837 13.3318 1.70005 9.3001 1.70005ZM0.600098 9.00005C0.600098 4.19517 4.49522 0.300049 9.3001 0.300049C14.105 0.300049 18.0001 4.19517 18.0001 9.00005C18.0001 13.8049 14.105 17.7001 9.3001 17.7001C4.49522 17.7001 0.600098 13.8049 0.600098 9.00005ZM9.3001 5.10005C9.6867 5.10005 10.0001 5.41345 10.0001 5.80005V9.00005C10.0001 9.38665 9.6867 9.70005 9.3001 9.70005C8.9135 9.70005 8.6001 9.38665 8.6001 9.00005V5.80005C8.6001 5.41345 8.9135 5.10005 9.3001 5.10005ZM8.6001 12.2C8.6001 11.8134 8.9135 11.5 9.3001 11.5H9.3081C9.6947 11.5 10.0081 11.8134 10.0081 12.2C10.0081 12.5866 9.6947 12.9 9.3081 12.9H9.3001C8.9135 12.9 8.6001 12.5866 8.6001 12.2Z" fill="#EB5757"/>
</svg>
