<svg width="24" height="25" viewBox="0 0 24 25" fill="none" xmlns="http://www.w3.org/2000/svg">
<path fill-rule="evenodd" clip-rule="evenodd" d="M17.3333 0.856934C21.0152 0.856934 24 3.84171 24 7.5236V18.1903C24 21.8721 21.0152 24.8569 17.3333 24.8569H6.66667C2.98477 24.8569 0 21.8721 0 18.1903L0 7.5236C0 3.84171 2.98477 0.856934 6.66667 0.856934L17.3333 0.856934ZM17.3333 3.5236L6.66667 3.5236C4.45753 3.5236 2.66667 5.31447 2.66667 7.5236L2.66667 18.1903C2.66667 20.3995 4.45753 22.1903 6.66667 22.1903H17.3333C19.5425 22.1903 21.3333 20.3995 21.3333 18.1903V7.5236C21.3333 5.31447 19.5425 3.5236 17.3333 3.5236ZM12 7.5236C14.9455 7.5236 17.3333 9.91141 17.3333 12.8569C17.3333 15.8024 14.9455 18.1903 12 18.1903C9.05448 18.1903 6.66667 15.8024 6.66667 12.8569C6.66667 9.91141 9.05448 7.5236 12 7.5236ZM12 10.1903C10.5272 10.1903 9.33333 11.3841 9.33333 12.8569C9.33333 14.3297 10.5272 15.5236 12 15.5236C13.4728 15.5236 14.6667 14.3297 14.6667 12.8569C14.6667 11.3841 13.4728 10.1903 12 10.1903ZM18 5.5236C18.7364 5.5236 19.3333 6.12056 19.3333 6.85693C19.3333 7.59331 18.7364 8.19027 18 8.19027C17.2636 8.19027 16.6667 7.59331 16.6667 6.85693C16.6667 6.12056 17.2636 5.5236 18 5.5236Z" fill="#FF8F8F"/>
</svg>
